<?xml version="1.0" encoding="utf-8"?>
<!-- Generator: Adobe Illustrator 19.0.0, SVG Export Plug-In . SVG Version: 6.00 Build 0)  -->
<svg version="1.1" id="Layer_1" xmlns="http://www.w3.org/2000/svg" xmlns:xlink="http://www.w3.org/1999/xlink" x="0px" y="0px"
	 viewBox="0 0 166.3 36.6" style="enable-background:new 0 0 166.3 36.6;" xml:space="preserve">
<style type="text/css">
	.st0{fill:#FFFFFF;}
	.st1{font-family:'Lato-Regular';}
	.st2{font-size:19.4344px;}
	.st3{fill:#FFFFFF;stroke:#FFFFFF;stroke-miterlimit:10;}
</style>
<g id="XMLID_27_">
	<text id="XMLID_2290_" transform="matrix(1.0007 0 0 1 44.6986 29.964)" class="st0 st1 st2">GYM &amp; YOGA</text>
	<g id="XMLID_2127_">
		<path id="XMLID_2245_" class="st3" d="M17.9,12.1c1.7-2.1,3.8-3.5,6.5-3.5c1.6,0,3.2,0.4,4.5,1.4c1.6,1.1,2.7,2.6,3.2,4.5
			c0.5,1.9,0.2,3.7-0.7,5.4c0.3,0,0.5,0,0.8,0.1c0,0.2,0,0.4,0,0.6c-0.1,0-0.2,0.1-0.3,0.1c-0.7-0.1-1.1,0.2-1.5,0.7
			c-1.4,1.5-2.9,3-4.4,4.5c-2.5,2.6-5,5.1-7.5,7.7c-0.6,0.6-0.6,0.6-1.2,0c-3.8-3.9-7.6-7.7-11.4-11.6c-0.1-0.1-0.2-0.2-0.3-0.3
			c-0.5-1-1.3-1.1-2.3-1c-0.6,0.1-1.1,0.9-1.7,0.9c0-0.2,0,0.3,0,0.3c1,0,1.9,0,2.9,0c-0.9-3-1.1-4.8-0.5-6.8c0.6-2,1.8-4,3.6-5
			c1.8-1,3.6-1.4,5.6-1C15.1,9.5,16.5,10.6,17.9,12.1z M17.9,26.7c0.1-0.4,0.2-0.6,0.3-0.8c0.6-1.8,1.3-3.5,1.9-5.3
			c0.2-0.5,0.4-0.7,0.9-0.7c3,0,6,0,9,0c0.5,0,0.7-0.1,0.9-0.6c1.5-3,0.6-6.6-2.1-8.6c-2.7-2.1-6.5-1.9-9,0.4
			c-0.5,0.5-1,0.9-1.4,1.4c-0.3,0.3-0.6,0.4-0.9,0c-0.5-0.5-0.9-1-1.4-1.4c-2.5-2.3-6.2-2.5-9-0.5c-2.7,2-3.6,5.7-2.1,8.7
			C5.1,19.8,5.3,20,5.8,20c0.8,0,1.6,0,2.4,0c0.4,0,0.6-0.1,0.8-0.5c0.8-1.7,1.6-3.3,2.5-5c0.1-0.2,0.3-0.4,0.5-0.6
			c0.1,0.2,0.3,0.3,0.4,0.6c0.5,1,0.9,2.1,1.4,3.1C15.1,20.6,16.5,23.6,17.9,26.7z M11.9,15.1c-0.1,0.2-0.2,0.4-0.3,0.6
			c-0.6,1.3-1.3,2.5-1.9,3.9c-0.4,0.9-0.9,1.2-1.8,1.1c-0.7-0.1-1.4,0-2.1,0c0,0.1,0,0.1-0.1,0.2c4,4.1,8.1,8.2,12.1,12.3
			C22,29,26,24.9,30.1,20.7c-0.3,0-0.3-0.1-0.4-0.1c-2.8,0-5.7,0-8.5,0c-0.4,0-0.5,0.2-0.6,0.5c-0.7,2.1-1.5,4.1-2.3,6.2
			c-0.1,0.2-0.3,0.4-0.5,0.7c-0.2-0.2-0.4-0.4-0.5-0.6c-1.7-3.8-3.4-7.6-5.1-11.4C12.2,15.7,12,15.4,11.9,15.1z"/>
	</g>
</g>
</svg>
